<mxfile host="app.diagrams.net" modified="2023-12-25T19:02:43.503Z" agent="Mozilla/5.0 (Windows NT 10.0; Win64; x64) AppleWebKit/537.36 (KHTML, like Gecko) Chrome/120.0.0.0 Safari/537.36" etag="IBz9Ym2Z-4ABGhwToXR3" version="22.1.11" type="github">
  <diagram id="C5RBs43oDa-KdzZeNtuy" name="Page-1">
    <mxGraphModel dx="1311" dy="678" grid="1" gridSize="10" guides="1" tooltips="1" connect="1" arrows="1" fold="1" page="1" pageScale="1" pageWidth="827" pageHeight="1169" math="0" shadow="0">
      <root>
        <mxCell id="WIyWlLk6GJQsqaUBKTNV-0" />
        <mxCell id="WIyWlLk6GJQsqaUBKTNV-1" parent="WIyWlLk6GJQsqaUBKTNV-0" />
        <mxCell id="WIyWlLk6GJQsqaUBKTNV-2" value="" style="rounded=0;html=1;jettySize=auto;orthogonalLoop=1;fontSize=11;endArrow=block;endFill=0;endSize=8;strokeWidth=1;shadow=0;labelBackgroundColor=none;edgeStyle=orthogonalEdgeStyle;" parent="WIyWlLk6GJQsqaUBKTNV-1" source="WIyWlLk6GJQsqaUBKTNV-3" target="WIyWlLk6GJQsqaUBKTNV-6" edge="1">
          <mxGeometry relative="1" as="geometry" />
        </mxCell>
        <mxCell id="WIyWlLk6GJQsqaUBKTNV-3" value="e-commerce checkout process" style="rounded=1;whiteSpace=wrap;html=1;fontSize=12;glass=0;strokeWidth=1;shadow=0;" parent="WIyWlLk6GJQsqaUBKTNV-1" vertex="1">
          <mxGeometry x="90" y="80" width="120" height="40" as="geometry" />
        </mxCell>
        <mxCell id="WIyWlLk6GJQsqaUBKTNV-4" value="Yes" style="rounded=0;html=1;jettySize=auto;orthogonalLoop=1;fontSize=11;endArrow=block;endFill=0;endSize=8;strokeWidth=1;shadow=0;labelBackgroundColor=none;edgeStyle=orthogonalEdgeStyle;" parent="WIyWlLk6GJQsqaUBKTNV-1" source="WIyWlLk6GJQsqaUBKTNV-6" target="WIyWlLk6GJQsqaUBKTNV-10" edge="1">
          <mxGeometry y="20" relative="1" as="geometry">
            <mxPoint as="offset" />
          </mxGeometry>
        </mxCell>
        <mxCell id="WIyWlLk6GJQsqaUBKTNV-5" value="No" style="edgeStyle=orthogonalEdgeStyle;rounded=0;html=1;jettySize=auto;orthogonalLoop=1;fontSize=11;endArrow=block;endFill=0;endSize=8;strokeWidth=1;shadow=0;labelBackgroundColor=none;" parent="WIyWlLk6GJQsqaUBKTNV-1" source="WIyWlLk6GJQsqaUBKTNV-6" target="WIyWlLk6GJQsqaUBKTNV-7" edge="1">
          <mxGeometry y="10" relative="1" as="geometry">
            <mxPoint as="offset" />
          </mxGeometry>
        </mxCell>
        <mxCell id="WIyWlLk6GJQsqaUBKTNV-6" value="&lt;strong&gt;Are there items in the cart?&lt;/strong&gt;" style="rhombus;whiteSpace=wrap;html=1;shadow=0;fontFamily=Helvetica;fontSize=12;align=center;strokeWidth=1;spacing=6;spacingTop=-4;" parent="WIyWlLk6GJQsqaUBKTNV-1" vertex="1">
          <mxGeometry x="30" y="170" width="240" height="80" as="geometry" />
        </mxCell>
        <mxCell id="WIyWlLk6GJQsqaUBKTNV-7" value="Cart is empty" style="rounded=1;whiteSpace=wrap;html=1;fontSize=12;glass=0;strokeWidth=1;shadow=0;" parent="WIyWlLk6GJQsqaUBKTNV-1" vertex="1">
          <mxGeometry x="420" y="190" width="120" height="40" as="geometry" />
        </mxCell>
        <mxCell id="WIyWlLk6GJQsqaUBKTNV-8" value="decision 02" style="rounded=0;html=1;jettySize=auto;orthogonalLoop=1;fontSize=11;endArrow=block;endFill=0;endSize=8;strokeWidth=1;shadow=0;labelBackgroundColor=none;edgeStyle=orthogonalEdgeStyle;" parent="WIyWlLk6GJQsqaUBKTNV-1" source="WIyWlLk6GJQsqaUBKTNV-10" target="WIyWlLk6GJQsqaUBKTNV-11" edge="1">
          <mxGeometry x="0.3333" y="20" relative="1" as="geometry">
            <mxPoint as="offset" />
          </mxGeometry>
        </mxCell>
        <mxCell id="tVFlNSZ2W-ryJuiqs2ZU-1" style="edgeStyle=orthogonalEdgeStyle;rounded=0;orthogonalLoop=1;jettySize=auto;html=1;entryX=0;entryY=0.5;entryDx=0;entryDy=0;" edge="1" parent="WIyWlLk6GJQsqaUBKTNV-1" source="WIyWlLk6GJQsqaUBKTNV-10" target="tVFlNSZ2W-ryJuiqs2ZU-0">
          <mxGeometry relative="1" as="geometry" />
        </mxCell>
        <mxCell id="WIyWlLk6GJQsqaUBKTNV-10" value="Proceed to Step 1." style="rhombus;whiteSpace=wrap;html=1;shadow=0;fontFamily=Helvetica;fontSize=12;align=center;strokeWidth=1;spacing=6;spacingTop=-4;" parent="WIyWlLk6GJQsqaUBKTNV-1" vertex="1">
          <mxGeometry x="75" y="320" width="150" height="80" as="geometry" />
        </mxCell>
        <mxCell id="WIyWlLk6GJQsqaUBKTNV-11" value="&lt;strong&gt;Does the user want to proceed with checkout?&lt;/strong&gt;" style="rounded=1;whiteSpace=wrap;html=1;fontSize=12;glass=0;strokeWidth=1;shadow=0;" parent="WIyWlLk6GJQsqaUBKTNV-1" vertex="1">
          <mxGeometry x="140" y="470" width="200" height="60" as="geometry" />
        </mxCell>
        <mxCell id="tVFlNSZ2W-ryJuiqs2ZU-25" style="edgeStyle=orthogonalEdgeStyle;rounded=0;orthogonalLoop=1;jettySize=auto;html=1;exitX=0.5;exitY=1;exitDx=0;exitDy=0;entryX=0.5;entryY=0;entryDx=0;entryDy=0;" edge="1" parent="WIyWlLk6GJQsqaUBKTNV-1" source="tVFlNSZ2W-ryJuiqs2ZU-0" target="tVFlNSZ2W-ryJuiqs2ZU-24">
          <mxGeometry relative="1" as="geometry" />
        </mxCell>
        <mxCell id="tVFlNSZ2W-ryJuiqs2ZU-0" value="&lt;strong&gt;Review Cart and Proceed&lt;/strong&gt;" style="rounded=0;whiteSpace=wrap;html=1;" vertex="1" parent="WIyWlLk6GJQsqaUBKTNV-1">
          <mxGeometry x="270" y="270" width="120" height="60" as="geometry" />
        </mxCell>
        <mxCell id="tVFlNSZ2W-ryJuiqs2ZU-31" style="edgeStyle=orthogonalEdgeStyle;rounded=0;orthogonalLoop=1;jettySize=auto;html=1;exitX=0.5;exitY=0;exitDx=0;exitDy=0;" edge="1" parent="WIyWlLk6GJQsqaUBKTNV-1" source="tVFlNSZ2W-ryJuiqs2ZU-8" target="tVFlNSZ2W-ryJuiqs2ZU-27">
          <mxGeometry relative="1" as="geometry" />
        </mxCell>
        <mxCell id="tVFlNSZ2W-ryJuiqs2ZU-8" value="Move to Step 2." style="rounded=1;whiteSpace=wrap;html=1;" vertex="1" parent="WIyWlLk6GJQsqaUBKTNV-1">
          <mxGeometry x="570" y="270" width="120" height="60" as="geometry" />
        </mxCell>
        <mxCell id="tVFlNSZ2W-ryJuiqs2ZU-19" value="" style="endArrow=classic;html=1;rounded=0;exitX=1;exitY=0.5;exitDx=0;exitDy=0;" edge="1" parent="WIyWlLk6GJQsqaUBKTNV-1" source="tVFlNSZ2W-ryJuiqs2ZU-0" target="tVFlNSZ2W-ryJuiqs2ZU-8">
          <mxGeometry relative="1" as="geometry">
            <mxPoint x="390" y="300" as="sourcePoint" />
            <mxPoint x="490" y="300" as="targetPoint" />
          </mxGeometry>
        </mxCell>
        <mxCell id="tVFlNSZ2W-ryJuiqs2ZU-20" value="Yes" style="edgeLabel;resizable=0;html=1;align=center;verticalAlign=middle;" connectable="0" vertex="1" parent="tVFlNSZ2W-ryJuiqs2ZU-19">
          <mxGeometry relative="1" as="geometry">
            <mxPoint y="-10" as="offset" />
          </mxGeometry>
        </mxCell>
        <mxCell id="tVFlNSZ2W-ryJuiqs2ZU-21" value="" style="endArrow=classic;html=1;rounded=0;entryX=0.5;entryY=1;entryDx=0;entryDy=0;" edge="1" parent="WIyWlLk6GJQsqaUBKTNV-1" source="WIyWlLk6GJQsqaUBKTNV-7" target="tVFlNSZ2W-ryJuiqs2ZU-22">
          <mxGeometry width="50" height="50" relative="1" as="geometry">
            <mxPoint x="390" y="320" as="sourcePoint" />
            <mxPoint x="480" y="130" as="targetPoint" />
          </mxGeometry>
        </mxCell>
        <mxCell id="tVFlNSZ2W-ryJuiqs2ZU-22" value="Products" style="rounded=0;whiteSpace=wrap;html=1;" vertex="1" parent="WIyWlLk6GJQsqaUBKTNV-1">
          <mxGeometry x="420" y="70" width="120" height="60" as="geometry" />
        </mxCell>
        <mxCell id="tVFlNSZ2W-ryJuiqs2ZU-23" value="" style="endArrow=classic;html=1;rounded=0;entryX=1;entryY=0.5;entryDx=0;entryDy=0;exitX=0;exitY=0.5;exitDx=0;exitDy=0;" edge="1" parent="WIyWlLk6GJQsqaUBKTNV-1" source="tVFlNSZ2W-ryJuiqs2ZU-22" target="WIyWlLk6GJQsqaUBKTNV-3">
          <mxGeometry width="50" height="50" relative="1" as="geometry">
            <mxPoint x="390" y="320" as="sourcePoint" />
            <mxPoint x="440" y="270" as="targetPoint" />
          </mxGeometry>
        </mxCell>
        <mxCell id="tVFlNSZ2W-ryJuiqs2ZU-24" value="Allow the user to continue shopping or edit cart items without losing progress." style="rounded=1;whiteSpace=wrap;html=1;" vertex="1" parent="WIyWlLk6GJQsqaUBKTNV-1">
          <mxGeometry x="400" y="410" width="160" height="60" as="geometry" />
        </mxCell>
        <mxCell id="tVFlNSZ2W-ryJuiqs2ZU-26" value="No" style="text;html=1;strokeColor=none;fillColor=none;align=center;verticalAlign=middle;whiteSpace=wrap;rounded=0;" vertex="1" parent="WIyWlLk6GJQsqaUBKTNV-1">
          <mxGeometry x="430" y="345" width="60" height="30" as="geometry" />
        </mxCell>
        <mxCell id="tVFlNSZ2W-ryJuiqs2ZU-33" value="" style="edgeStyle=orthogonalEdgeStyle;rounded=0;orthogonalLoop=1;jettySize=auto;html=1;" edge="1" parent="WIyWlLk6GJQsqaUBKTNV-1" source="tVFlNSZ2W-ryJuiqs2ZU-27" target="tVFlNSZ2W-ryJuiqs2ZU-32">
          <mxGeometry relative="1" as="geometry">
            <Array as="points">
              <mxPoint x="925" y="190" />
            </Array>
          </mxGeometry>
        </mxCell>
        <mxCell id="tVFlNSZ2W-ryJuiqs2ZU-27" value="&lt;strong&gt;Choose Shipping Method&lt;/strong&gt;" style="rhombus;whiteSpace=wrap;html=1;" vertex="1" parent="WIyWlLk6GJQsqaUBKTNV-1">
          <mxGeometry x="590" y="150" width="280" height="80" as="geometry" />
        </mxCell>
        <mxCell id="tVFlNSZ2W-ryJuiqs2ZU-35" style="edgeStyle=orthogonalEdgeStyle;rounded=0;orthogonalLoop=1;jettySize=auto;html=1;entryX=0.5;entryY=0;entryDx=0;entryDy=0;" edge="1" parent="WIyWlLk6GJQsqaUBKTNV-1" source="tVFlNSZ2W-ryJuiqs2ZU-32" target="tVFlNSZ2W-ryJuiqs2ZU-36">
          <mxGeometry relative="1" as="geometry">
            <mxPoint x="925" y="370" as="targetPoint" />
          </mxGeometry>
        </mxCell>
        <mxCell id="tVFlNSZ2W-ryJuiqs2ZU-32" value="&lt;strong&gt;Has the user selected a shipping method?&lt;/strong&gt;" style="whiteSpace=wrap;html=1;" vertex="1" parent="WIyWlLk6GJQsqaUBKTNV-1">
          <mxGeometry x="820" y="240" width="210" height="60" as="geometry" />
        </mxCell>
        <mxCell id="tVFlNSZ2W-ryJuiqs2ZU-34" value="&lt;strong&gt;Decision 3&lt;/strong&gt;" style="text;html=1;strokeColor=none;fillColor=none;align=center;verticalAlign=middle;whiteSpace=wrap;rounded=0;" vertex="1" parent="WIyWlLk6GJQsqaUBKTNV-1">
          <mxGeometry x="895" y="160" width="90" height="30" as="geometry" />
        </mxCell>
        <mxCell id="tVFlNSZ2W-ryJuiqs2ZU-36" value="Move to Step 3" style="rounded=1;whiteSpace=wrap;html=1;" vertex="1" parent="WIyWlLk6GJQsqaUBKTNV-1">
          <mxGeometry x="865" y="380" width="120" height="60" as="geometry" />
        </mxCell>
        <mxCell id="tVFlNSZ2W-ryJuiqs2ZU-37" value="&lt;strong&gt;Yes&lt;/strong&gt;" style="text;html=1;strokeColor=none;fillColor=none;align=center;verticalAlign=middle;whiteSpace=wrap;rounded=0;" vertex="1" parent="WIyWlLk6GJQsqaUBKTNV-1">
          <mxGeometry x="895" y="330" width="90" height="30" as="geometry" />
        </mxCell>
        <mxCell id="tVFlNSZ2W-ryJuiqs2ZU-38" value="make a selection.&lt;br&gt;Available shipping options" style="rounded=1;whiteSpace=wrap;html=1;" vertex="1" parent="WIyWlLk6GJQsqaUBKTNV-1">
          <mxGeometry x="700" y="420" width="120" height="60" as="geometry" />
        </mxCell>
        <mxCell id="tVFlNSZ2W-ryJuiqs2ZU-39" value="" style="endArrow=classic;html=1;rounded=0;exitX=0;exitY=0.5;exitDx=0;exitDy=0;entryX=0.5;entryY=0;entryDx=0;entryDy=0;" edge="1" parent="WIyWlLk6GJQsqaUBKTNV-1" source="tVFlNSZ2W-ryJuiqs2ZU-32" target="tVFlNSZ2W-ryJuiqs2ZU-38">
          <mxGeometry width="50" height="50" relative="1" as="geometry">
            <mxPoint x="460" y="470" as="sourcePoint" />
            <mxPoint x="510" y="420" as="targetPoint" />
            <Array as="points">
              <mxPoint x="760" y="270" />
            </Array>
          </mxGeometry>
        </mxCell>
        <mxCell id="tVFlNSZ2W-ryJuiqs2ZU-40" value="&lt;strong&gt;No&lt;/strong&gt;" style="text;html=1;strokeColor=none;fillColor=none;align=center;verticalAlign=middle;whiteSpace=wrap;rounded=0;" vertex="1" parent="WIyWlLk6GJQsqaUBKTNV-1">
          <mxGeometry x="730" y="330" width="90" height="30" as="geometry" />
        </mxCell>
        <mxCell id="tVFlNSZ2W-ryJuiqs2ZU-41" value="" style="endArrow=classic;html=1;rounded=0;exitX=0;exitY=0.5;exitDx=0;exitDy=0;exitPerimeter=0;entryX=0.5;entryY=1;entryDx=0;entryDy=0;" edge="1" parent="WIyWlLk6GJQsqaUBKTNV-1" source="tVFlNSZ2W-ryJuiqs2ZU-38" target="tVFlNSZ2W-ryJuiqs2ZU-8">
          <mxGeometry width="50" height="50" relative="1" as="geometry">
            <mxPoint x="460" y="470" as="sourcePoint" />
            <mxPoint x="510" y="420" as="targetPoint" />
            <Array as="points">
              <mxPoint x="630" y="450" />
            </Array>
          </mxGeometry>
        </mxCell>
        <mxCell id="tVFlNSZ2W-ryJuiqs2ZU-42" value="&lt;strong&gt;&amp;nbsp;Enter Delivery Information&lt;/strong&gt;" style="rounded=0;whiteSpace=wrap;html=1;" vertex="1" parent="WIyWlLk6GJQsqaUBKTNV-1">
          <mxGeometry x="865" y="530" width="120" height="60" as="geometry" />
        </mxCell>
        <mxCell id="tVFlNSZ2W-ryJuiqs2ZU-43" value="" style="endArrow=classic;html=1;rounded=0;exitX=0.5;exitY=1;exitDx=0;exitDy=0;" edge="1" parent="WIyWlLk6GJQsqaUBKTNV-1" source="tVFlNSZ2W-ryJuiqs2ZU-36" target="tVFlNSZ2W-ryJuiqs2ZU-42">
          <mxGeometry width="50" height="50" relative="1" as="geometry">
            <mxPoint x="460" y="470" as="sourcePoint" />
            <mxPoint x="510" y="420" as="targetPoint" />
          </mxGeometry>
        </mxCell>
        <mxCell id="tVFlNSZ2W-ryJuiqs2ZU-44" value="delivery information, including name, address, and contact details." style="rounded=1;whiteSpace=wrap;html=1;" vertex="1" parent="WIyWlLk6GJQsqaUBKTNV-1">
          <mxGeometry x="600" y="530" width="170" height="60" as="geometry" />
        </mxCell>
        <mxCell id="tVFlNSZ2W-ryJuiqs2ZU-45" value="" style="endArrow=classic;html=1;rounded=0;exitX=0;exitY=0.5;exitDx=0;exitDy=0;entryX=1;entryY=0.5;entryDx=0;entryDy=0;" edge="1" parent="WIyWlLk6GJQsqaUBKTNV-1" source="tVFlNSZ2W-ryJuiqs2ZU-42" target="tVFlNSZ2W-ryJuiqs2ZU-44">
          <mxGeometry width="50" height="50" relative="1" as="geometry">
            <mxPoint x="460" y="470" as="sourcePoint" />
            <mxPoint x="510" y="420" as="targetPoint" />
          </mxGeometry>
        </mxCell>
        <mxCell id="tVFlNSZ2W-ryJuiqs2ZU-46" value="&lt;strong&gt;Has the user entered valid delivery information?&lt;/strong&gt;" style="rounded=0;whiteSpace=wrap;html=1;" vertex="1" parent="WIyWlLk6GJQsqaUBKTNV-1">
          <mxGeometry x="612.5" y="680" width="145" height="60" as="geometry" />
        </mxCell>
        <mxCell id="tVFlNSZ2W-ryJuiqs2ZU-47" value="" style="endArrow=classic;html=1;rounded=0;exitX=0.5;exitY=1;exitDx=0;exitDy=0;entryX=0.5;entryY=0;entryDx=0;entryDy=0;" edge="1" parent="WIyWlLk6GJQsqaUBKTNV-1" source="tVFlNSZ2W-ryJuiqs2ZU-44" target="tVFlNSZ2W-ryJuiqs2ZU-46">
          <mxGeometry width="50" height="50" relative="1" as="geometry">
            <mxPoint x="460" y="710" as="sourcePoint" />
            <mxPoint x="510" y="660" as="targetPoint" />
          </mxGeometry>
        </mxCell>
        <mxCell id="tVFlNSZ2W-ryJuiqs2ZU-48" value="" style="strokeWidth=2;html=1;shape=mxgraph.flowchart.annotation_2;align=left;labelPosition=right;pointerEvents=1;rotation=-180;" vertex="1" parent="WIyWlLk6GJQsqaUBKTNV-1">
          <mxGeometry x="515" y="640" width="97.5" height="165" as="geometry" />
        </mxCell>
        <mxCell id="tVFlNSZ2W-ryJuiqs2ZU-52" style="edgeStyle=orthogonalEdgeStyle;rounded=0;orthogonalLoop=1;jettySize=auto;html=1;" edge="1" parent="WIyWlLk6GJQsqaUBKTNV-1" source="tVFlNSZ2W-ryJuiqs2ZU-49">
          <mxGeometry relative="1" as="geometry">
            <mxPoint x="360" y="640" as="targetPoint" />
          </mxGeometry>
        </mxCell>
        <mxCell id="tVFlNSZ2W-ryJuiqs2ZU-49" value="Yes" style="rhombus;whiteSpace=wrap;html=1;" vertex="1" parent="WIyWlLk6GJQsqaUBKTNV-1">
          <mxGeometry x="435" y="600" width="80" height="80" as="geometry" />
        </mxCell>
        <mxCell id="tVFlNSZ2W-ryJuiqs2ZU-53" style="edgeStyle=orthogonalEdgeStyle;rounded=0;orthogonalLoop=1;jettySize=auto;html=1;entryX=1;entryY=0.5;entryDx=0;entryDy=0;" edge="1" parent="WIyWlLk6GJQsqaUBKTNV-1" source="tVFlNSZ2W-ryJuiqs2ZU-50" target="tVFlNSZ2W-ryJuiqs2ZU-55">
          <mxGeometry relative="1" as="geometry">
            <mxPoint x="360" y="800" as="targetPoint" />
          </mxGeometry>
        </mxCell>
        <mxCell id="tVFlNSZ2W-ryJuiqs2ZU-50" value="No" style="rhombus;whiteSpace=wrap;html=1;" vertex="1" parent="WIyWlLk6GJQsqaUBKTNV-1">
          <mxGeometry x="440" y="760" width="80" height="80" as="geometry" />
        </mxCell>
        <mxCell id="tVFlNSZ2W-ryJuiqs2ZU-54" value="correct address details and verify accuracy before proceeding." style="rounded=1;whiteSpace=wrap;html=1;" vertex="1" parent="WIyWlLk6GJQsqaUBKTNV-1">
          <mxGeometry x="140" y="610" width="220" height="60" as="geometry" />
        </mxCell>
        <mxCell id="tVFlNSZ2W-ryJuiqs2ZU-56" style="edgeStyle=orthogonalEdgeStyle;rounded=0;orthogonalLoop=1;jettySize=auto;html=1;entryX=0.5;entryY=0;entryDx=0;entryDy=0;" edge="1" parent="WIyWlLk6GJQsqaUBKTNV-1" source="tVFlNSZ2W-ryJuiqs2ZU-55" target="tVFlNSZ2W-ryJuiqs2ZU-58">
          <mxGeometry relative="1" as="geometry">
            <mxPoint x="160" y="810" as="targetPoint" />
            <Array as="points">
              <mxPoint x="165" y="730" />
            </Array>
          </mxGeometry>
        </mxCell>
        <mxCell id="tVFlNSZ2W-ryJuiqs2ZU-55" value="Move to Step 4" style="rounded=1;whiteSpace=wrap;html=1;" vertex="1" parent="WIyWlLk6GJQsqaUBKTNV-1">
          <mxGeometry x="200" y="700" width="120" height="60" as="geometry" />
        </mxCell>
        <mxCell id="tVFlNSZ2W-ryJuiqs2ZU-57" value="" style="endArrow=classic;html=1;rounded=0;exitX=0.5;exitY=0;exitDx=0;exitDy=0;entryX=0;entryY=0.5;entryDx=0;entryDy=0;" edge="1" parent="WIyWlLk6GJQsqaUBKTNV-1" source="tVFlNSZ2W-ryJuiqs2ZU-54" target="tVFlNSZ2W-ryJuiqs2ZU-44">
          <mxGeometry width="50" height="50" relative="1" as="geometry">
            <mxPoint x="460" y="710" as="sourcePoint" />
            <mxPoint x="510" y="660" as="targetPoint" />
            <Array as="points">
              <mxPoint x="250" y="560" />
              <mxPoint x="450" y="560" />
            </Array>
          </mxGeometry>
        </mxCell>
        <mxCell id="tVFlNSZ2W-ryJuiqs2ZU-60" style="edgeStyle=orthogonalEdgeStyle;rounded=0;orthogonalLoop=1;jettySize=auto;html=1;exitX=1;exitY=0.5;exitDx=0;exitDy=0;" edge="1" parent="WIyWlLk6GJQsqaUBKTNV-1" source="tVFlNSZ2W-ryJuiqs2ZU-58">
          <mxGeometry relative="1" as="geometry">
            <mxPoint x="370" y="910" as="targetPoint" />
          </mxGeometry>
        </mxCell>
        <mxCell id="tVFlNSZ2W-ryJuiqs2ZU-58" value="&lt;strong&gt;Choose Payment Method&lt;/strong&gt;" style="rounded=0;whiteSpace=wrap;html=1;" vertex="1" parent="WIyWlLk6GJQsqaUBKTNV-1">
          <mxGeometry x="105" y="810" width="120" height="60" as="geometry" />
        </mxCell>
        <mxCell id="tVFlNSZ2W-ryJuiqs2ZU-59" value="" style="endArrow=classic;html=1;rounded=0;exitX=0.453;exitY=0.984;exitDx=0;exitDy=0;exitPerimeter=0;entryX=1;entryY=0.5;entryDx=0;entryDy=0;" edge="1" parent="WIyWlLk6GJQsqaUBKTNV-1" source="tVFlNSZ2W-ryJuiqs2ZU-24" target="WIyWlLk6GJQsqaUBKTNV-11">
          <mxGeometry width="50" height="50" relative="1" as="geometry">
            <mxPoint x="460" y="590" as="sourcePoint" />
            <mxPoint x="510" y="540" as="targetPoint" />
            <Array as="points">
              <mxPoint x="472" y="500" />
            </Array>
          </mxGeometry>
        </mxCell>
        <mxCell id="tVFlNSZ2W-ryJuiqs2ZU-62" style="edgeStyle=orthogonalEdgeStyle;rounded=0;orthogonalLoop=1;jettySize=auto;html=1;" edge="1" parent="WIyWlLk6GJQsqaUBKTNV-1" source="tVFlNSZ2W-ryJuiqs2ZU-61">
          <mxGeometry relative="1" as="geometry">
            <mxPoint x="550" y="890" as="targetPoint" />
          </mxGeometry>
        </mxCell>
        <mxCell id="tVFlNSZ2W-ryJuiqs2ZU-66" style="edgeStyle=orthogonalEdgeStyle;rounded=0;orthogonalLoop=1;jettySize=auto;html=1;entryX=1;entryY=0.5;entryDx=0;entryDy=0;" edge="1" parent="WIyWlLk6GJQsqaUBKTNV-1">
          <mxGeometry relative="1" as="geometry">
            <mxPoint x="246.25" y="1035" as="targetPoint" />
            <mxPoint x="362.5" y="980" as="sourcePoint" />
            <Array as="points">
              <mxPoint x="363" y="1035" />
            </Array>
          </mxGeometry>
        </mxCell>
        <mxCell id="tVFlNSZ2W-ryJuiqs2ZU-69" value="No" style="edgeLabel;html=1;align=center;verticalAlign=middle;resizable=0;points=[];" vertex="1" connectable="0" parent="tVFlNSZ2W-ryJuiqs2ZU-66">
          <mxGeometry x="0.6454" y="-1" relative="1" as="geometry">
            <mxPoint x="1" as="offset" />
          </mxGeometry>
        </mxCell>
        <mxCell id="tVFlNSZ2W-ryJuiqs2ZU-61" value="&lt;strong&gt;Has the user selected a payment method?&lt;/strong&gt;" style="ellipse;whiteSpace=wrap;html=1;" vertex="1" parent="WIyWlLk6GJQsqaUBKTNV-1">
          <mxGeometry x="310" y="910" width="120" height="80" as="geometry" />
        </mxCell>
        <mxCell id="tVFlNSZ2W-ryJuiqs2ZU-64" style="edgeStyle=orthogonalEdgeStyle;rounded=0;orthogonalLoop=1;jettySize=auto;html=1;exitX=1;exitY=0.5;exitDx=0;exitDy=0;entryX=0;entryY=0.5;entryDx=0;entryDy=0;" edge="1" parent="WIyWlLk6GJQsqaUBKTNV-1" source="tVFlNSZ2W-ryJuiqs2ZU-63" target="tVFlNSZ2W-ryJuiqs2ZU-65">
          <mxGeometry relative="1" as="geometry">
            <mxPoint x="660" y="780" as="targetPoint" />
          </mxGeometry>
        </mxCell>
        <mxCell id="tVFlNSZ2W-ryJuiqs2ZU-63" value="Yes" style="rhombus;whiteSpace=wrap;html=1;" vertex="1" parent="WIyWlLk6GJQsqaUBKTNV-1">
          <mxGeometry x="510" y="840" width="80" height="80" as="geometry" />
        </mxCell>
        <mxCell id="tVFlNSZ2W-ryJuiqs2ZU-71" style="edgeStyle=orthogonalEdgeStyle;rounded=0;orthogonalLoop=1;jettySize=auto;html=1;exitX=1;exitY=0.5;exitDx=0;exitDy=0;" edge="1" parent="WIyWlLk6GJQsqaUBKTNV-1" source="tVFlNSZ2W-ryJuiqs2ZU-65" target="tVFlNSZ2W-ryJuiqs2ZU-72">
          <mxGeometry relative="1" as="geometry">
            <mxPoint x="680" y="920" as="targetPoint" />
          </mxGeometry>
        </mxCell>
        <mxCell id="tVFlNSZ2W-ryJuiqs2ZU-65" value="Move to Step 5." style="whiteSpace=wrap;html=1;" vertex="1" parent="WIyWlLk6GJQsqaUBKTNV-1">
          <mxGeometry x="660" y="780" width="120" height="60" as="geometry" />
        </mxCell>
        <mxCell id="tVFlNSZ2W-ryJuiqs2ZU-70" style="edgeStyle=orthogonalEdgeStyle;rounded=0;orthogonalLoop=1;jettySize=auto;html=1;entryX=0.5;entryY=1;entryDx=0;entryDy=0;" edge="1" parent="WIyWlLk6GJQsqaUBKTNV-1" source="tVFlNSZ2W-ryJuiqs2ZU-68" target="tVFlNSZ2W-ryJuiqs2ZU-58">
          <mxGeometry relative="1" as="geometry" />
        </mxCell>
        <mxCell id="tVFlNSZ2W-ryJuiqs2ZU-68" value="Display available payment options prominently and prompt the user to make a selection." style="rounded=0;whiteSpace=wrap;html=1;" vertex="1" parent="WIyWlLk6GJQsqaUBKTNV-1">
          <mxGeometry x="83.75" y="980" width="162.5" height="130" as="geometry" />
        </mxCell>
        <mxCell id="tVFlNSZ2W-ryJuiqs2ZU-73" style="edgeStyle=orthogonalEdgeStyle;rounded=0;orthogonalLoop=1;jettySize=auto;html=1;" edge="1" parent="WIyWlLk6GJQsqaUBKTNV-1" source="tVFlNSZ2W-ryJuiqs2ZU-72" target="tVFlNSZ2W-ryJuiqs2ZU-74">
          <mxGeometry relative="1" as="geometry">
            <mxPoint x="870" y="790" as="targetPoint" />
          </mxGeometry>
        </mxCell>
        <mxCell id="tVFlNSZ2W-ryJuiqs2ZU-80" value="" style="edgeStyle=orthogonalEdgeStyle;rounded=0;orthogonalLoop=1;jettySize=auto;html=1;" edge="1" parent="WIyWlLk6GJQsqaUBKTNV-1" source="tVFlNSZ2W-ryJuiqs2ZU-82" target="tVFlNSZ2W-ryJuiqs2ZU-79">
          <mxGeometry relative="1" as="geometry" />
        </mxCell>
        <mxCell id="tVFlNSZ2W-ryJuiqs2ZU-72" value="&lt;strong&gt;Review and Confirm Order&lt;/strong&gt;" style="rounded=0;whiteSpace=wrap;html=1;" vertex="1" parent="WIyWlLk6GJQsqaUBKTNV-1">
          <mxGeometry x="660" y="900" width="120" height="60" as="geometry" />
        </mxCell>
        <mxCell id="tVFlNSZ2W-ryJuiqs2ZU-75" style="edgeStyle=orthogonalEdgeStyle;rounded=0;orthogonalLoop=1;jettySize=auto;html=1;exitX=0.5;exitY=0;exitDx=0;exitDy=0;" edge="1" parent="WIyWlLk6GJQsqaUBKTNV-1" source="tVFlNSZ2W-ryJuiqs2ZU-78" target="tVFlNSZ2W-ryJuiqs2ZU-76">
          <mxGeometry relative="1" as="geometry">
            <mxPoint x="1040" y="700" as="targetPoint" />
          </mxGeometry>
        </mxCell>
        <mxCell id="tVFlNSZ2W-ryJuiqs2ZU-74" value="&lt;strong&gt;Does the user confirm the order?&lt;/strong&gt;" style="rounded=1;whiteSpace=wrap;html=1;" vertex="1" parent="WIyWlLk6GJQsqaUBKTNV-1">
          <mxGeometry x="840" y="745" width="120" height="60" as="geometry" />
        </mxCell>
        <mxCell id="tVFlNSZ2W-ryJuiqs2ZU-83" style="edgeStyle=orthogonalEdgeStyle;rounded=0;orthogonalLoop=1;jettySize=auto;html=1;" edge="1" parent="WIyWlLk6GJQsqaUBKTNV-1" source="tVFlNSZ2W-ryJuiqs2ZU-76">
          <mxGeometry relative="1" as="geometry">
            <mxPoint x="1010" y="930" as="targetPoint" />
          </mxGeometry>
        </mxCell>
        <mxCell id="tVFlNSZ2W-ryJuiqs2ZU-76" value="Move to Step 6." style="whiteSpace=wrap;html=1;aspect=fixed;" vertex="1" parent="WIyWlLk6GJQsqaUBKTNV-1">
          <mxGeometry x="1000" y="645" width="120" height="120" as="geometry" />
        </mxCell>
        <mxCell id="tVFlNSZ2W-ryJuiqs2ZU-77" value="" style="edgeStyle=orthogonalEdgeStyle;rounded=0;orthogonalLoop=1;jettySize=auto;html=1;exitX=0.5;exitY=0;exitDx=0;exitDy=0;" edge="1" parent="WIyWlLk6GJQsqaUBKTNV-1" source="tVFlNSZ2W-ryJuiqs2ZU-74" target="tVFlNSZ2W-ryJuiqs2ZU-78">
          <mxGeometry relative="1" as="geometry">
            <mxPoint x="1000" y="705" as="targetPoint" />
            <mxPoint x="900" y="745" as="sourcePoint" />
          </mxGeometry>
        </mxCell>
        <mxCell id="tVFlNSZ2W-ryJuiqs2ZU-78" value="Yes" style="text;html=1;strokeColor=none;fillColor=none;align=center;verticalAlign=middle;whiteSpace=wrap;rounded=0;" vertex="1" parent="WIyWlLk6GJQsqaUBKTNV-1">
          <mxGeometry x="870" y="650" width="60" height="30" as="geometry" />
        </mxCell>
        <mxCell id="tVFlNSZ2W-ryJuiqs2ZU-79" value="Allow the user to easily review and edit order details before confirming." style="whiteSpace=wrap;html=1;rounded=0;" vertex="1" parent="WIyWlLk6GJQsqaUBKTNV-1">
          <mxGeometry x="660" y="980" width="240" height="70" as="geometry" />
        </mxCell>
        <mxCell id="tVFlNSZ2W-ryJuiqs2ZU-81" value="" style="edgeStyle=orthogonalEdgeStyle;rounded=0;orthogonalLoop=1;jettySize=auto;html=1;" edge="1" parent="WIyWlLk6GJQsqaUBKTNV-1" source="tVFlNSZ2W-ryJuiqs2ZU-72" target="tVFlNSZ2W-ryJuiqs2ZU-82">
          <mxGeometry relative="1" as="geometry">
            <mxPoint x="720" y="960" as="sourcePoint" />
            <mxPoint x="660" y="1030" as="targetPoint" />
          </mxGeometry>
        </mxCell>
        <mxCell id="tVFlNSZ2W-ryJuiqs2ZU-82" value="No" style="text;html=1;strokeColor=none;fillColor=none;align=center;verticalAlign=middle;whiteSpace=wrap;rounded=0;" vertex="1" parent="WIyWlLk6GJQsqaUBKTNV-1">
          <mxGeometry x="550" y="1000" width="60" height="30" as="geometry" />
        </mxCell>
        <mxCell id="tVFlNSZ2W-ryJuiqs2ZU-84" value="&lt;strong&gt;Order Confirmation and Completion&lt;/strong&gt;" style="rounded=1;whiteSpace=wrap;html=1;fillColor=#f5f5f5;fontColor=#333333;strokeColor=#666666;" vertex="1" parent="WIyWlLk6GJQsqaUBKTNV-1">
          <mxGeometry x="950" y="930" width="110" height="60" as="geometry" />
        </mxCell>
      </root>
    </mxGraphModel>
  </diagram>
</mxfile>
